<svg xmlns="http://www.w3.org/2000/svg" width="43.25" height="28.238" viewBox="0 0 43.25 28.238">
  <g id="Group_4" data-name="Group 4" transform="translate(-150.597 -187.55)">
    <path id="Path_4" data-name="Path 4" d="M189.346,187.55H155.1a4.506,4.506,0,0,0-4.5,4.5v19.236a4.506,4.506,0,0,0,4.5,4.5h34.249a4.506,4.506,0,0,0,4.5-4.5V192.051A4.506,4.506,0,0,0,189.346,187.55Zm-34.249,1.5h34.249a3,3,0,0,1,3,3v1.438H152.1v-1.438A3,3,0,0,1,155.1,189.05Zm34.249,25.238H155.1a3,3,0,0,1-3-3V198.4h40.25v12.885A3,3,0,0,1,189.346,214.288Z" fill="#006fb0"/>
    <rect id="Rectangle_14" data-name="Rectangle 14" width="15.771" height="2.456" transform="translate(153.285 203.489)" fill="#006fb0"/>
    <rect id="Rectangle_15" data-name="Rectangle 15" width="15.771" height="2.456" transform="translate(173.324 203.489)" fill="#006fb0"/>
    <rect id="Rectangle_16" data-name="Rectangle 16" width="15.771" height="1.228" transform="translate(173.324 207.721)" fill="#006fb0"/>
  </g>
</svg>
