<svg xmlns="http://www.w3.org/2000/svg" width="38.431" height="28.142" viewBox="0 0 38.431 28.142">
  <path id="Path_23" data-name="Path 23" d="M188.382,413.585h-1.42l-1.437-6.542a3.484,3.484,0,0,0-3.475-3.293H162.393a3.483,3.483,0,0,0-3.474,3.293l-1.438,6.542h-1.42a3.054,3.054,0,0,0-3.055,3.054v8.4a3.055,3.055,0,0,0,3.055,3.055h.887v2.89a.911.911,0,0,0,.911.911h4.654a.91.91,0,0,0,.91-.911v-2.89H181.99v2.89a.911.911,0,0,0,.911.911h4.654a.91.91,0,0,0,.91-.911v-2.9a3.05,3.05,0,0,0,2.972-3.046v-8.4A3.054,3.054,0,0,0,188.382,413.585Zm-26.448-6.191v-.164a.46.46,0,0,1,.459-.459H182.05a.46.46,0,0,1,.459.459v.164l1.36,6.191H160.574Zm1.929,14.8a.963.963,0,0,1-.963.964h-6.1a.964.964,0,0,1-.964-.964v-2.154a.964.964,0,0,1,.964-.964h6.1a.963.963,0,0,1,.963.964Zm16.259,0v-2.154a.964.964,0,0,1,.964-.964h6.1a.963.963,0,0,1,.963.964v2.154a.963.963,0,0,1-.963.964h-6.1A.964.964,0,0,1,180.122,422.192Z" transform="translate(-153.006 -403.75)" fill="#006fb0"/>
</svg>
