<svg xmlns="http://www.w3.org/2000/svg" width="425" height="78" viewBox="0 0 425 78">
  <g id="Symbol_2_1" data-name="Symbol 2 – 1" transform="translate(-138.234 -14.362)">
    <rect id="Rectangle_3" data-name="Rectangle 3" width="425" height="76" transform="translate(138.234 14.362)" fill="#004167"/>
    <text id="Monthly_Budget" data-name="Budget Tracker" transform="translate(150.596 71.621)" fill="#fff" font-size="37.746" font-family="Roboto-Bold, Roboto" font-weight="700"><tspan x="0" y="0">Budget Tracker</tspan></text>
    <g id="Symbol_1_1" data-name="Symbol 1 – 1">
      <path id="Path_1" data-name="Path 1" d="M546.205,42.149a11.892,11.892,0,0,1-5.483,1.546,22.326,22.326,0,0,1,2.709,10.518,23.041,23.041,0,0,1-4.209,13.012l.014-.006s-9.717,22.963-11.181,23.69S520,92.362,520,92.362l-.991-10.327a70.938,70.938,0,0,1-25.368,4.514,74.842,74.842,0,0,1-14.976-1.491l-2.6,7.3h-5.126l-3.838-10.794c-7.894-3.237-14.3-7.868-18.366-13.37-2.824-.235-6.493-.772-8.548-1.995-3.661-2.18-3.661-11.627-3.661-11.627l7.379-1.83c.394-5.724,3.081-11.057,7.476-15.629-1.451-2.12-3.373-4.891-4.6-6.52-1.644-2.176,5.83.408,9.922,1.937,9.111-6.544,22.285-10.657,36.939-10.657,20.979,0,38.914,8.431,46.245,20.357a10.6,10.6,0,0,0,5.564-1.365c1.851-1.079,3.963-3.778,2.852-6.078a5.146,5.146,0,0,0-4.692-2.593,4.5,4.5,0,0,0-1.3.145q-2.658.052-1.186,3.938c.919-.3,1.308,1.137.4,1.43-3.493,1.124-4.952-3.1-2.677-5.374,2.446-2.444,8.009-2.292,10.12.524C551.384,36.087,549.33,40.336,546.205,42.149Zm-64.083-12.3c12.812-3.532,25.1-.039,25.225,0a.734.734,0,0,0,.909-.493.725.725,0,0,0-.5-.9,52.4,52.4,0,0,0-26.029,0,.726.726,0,0,0,.2,1.427A.735.735,0,0,0,482.122,29.844Zm15.027,33.4a5.152,5.152,0,0,1-3.4,1.032,4.576,4.576,0,0,1-3.417-1.228,4.8,4.8,0,0,1-1.2-3.507h-3.054a7.289,7.289,0,0,0,1.742,5.137,7.145,7.145,0,0,0,4.812,2.17v3.129h2.443V66.845a7.449,7.449,0,0,0,4.7-2,6.05,6.05,0,0,0,1.676-4.457,6.53,6.53,0,0,0-.668-3.031,6.3,6.3,0,0,0-2.08-2.269,15.29,15.29,0,0,0-3.929-1.786,10.132,10.132,0,0,1-3.615-1.806,3.415,3.415,0,0,1-1.1-2.667,3.738,3.738,0,0,1,1.04-2.815,4.144,4.144,0,0,1,3-1.009,3.646,3.646,0,0,1,2.988,1.364,5.68,5.68,0,0,1,1.106,3.682h3.038a8.259,8.259,0,0,0-1.544-5.292,6.382,6.382,0,0,0-4.317-2.31v-3.6h-2.46v3.588a6.715,6.715,0,0,0-4.333,2.048A6.267,6.267,0,0,0,487,48.889a6.1,6.1,0,0,0,1.609,4.35,11.53,11.53,0,0,0,5.126,2.777,9.559,9.559,0,0,1,3.591,1.868,3.4,3.4,0,0,1,1.064,2.539A3.474,3.474,0,0,1,497.149,63.241Z" fill="#d4e0ff"/>
    </g>
  </g>
</svg>
