<svg xmlns="http://www.w3.org/2000/svg" width="42.029" height="40.073" viewBox="0 0 42.029 40.073">
  <g id="Group_23" data-name="Group 23" transform="translate(-151.207 -544.826)">
    <path id="Path_25" data-name="Path 25" d="M172.222,550.586l6.176-4.732,2.215,7.459,7.778-.2-2.592,7.336,6.409,4.411-6.409,4.411,2.592,7.336-7.778-.2L178.4,583.87l-6.176-4.732-6.176,4.732-2.215-7.459-7.778.2,2.592-7.336-6.409-4.411,6.409-4.411-2.592-7.336,7.778.2,2.215-7.459Z" fill="none" stroke="#006fb0" stroke-linecap="round" stroke-linejoin="round" stroke-width="2.057"/>
    <path id="Path_26" data-name="Path 26" d="M180.39,575.133c-.376-1.1-6.02-12.651-6.02-12.651L172.3,567l-9.407-12.459,10.16,19.319,1.317-5.958Z" fill="#006fb0" stroke="#006fb0" stroke-linecap="round" stroke-linejoin="round" stroke-width="0.56"/>
  </g>
</svg>
